<?xml version="1.0" encoding="UTF-8" standalone="no"?>
<!-- Created with Inkscape (http://www.inkscape.org/) -->

<svg
   xmlns:dc="http://purl.org/dc/elements/1.1/"
   xmlns:cc="http://creativecommons.org/ns#"
   xmlns:rdf="http://www.w3.org/1999/02/22-rdf-syntax-ns#"
   xmlns:svg="http://www.w3.org/2000/svg"
   xmlns="http://www.w3.org/2000/svg"
   xmlns:sodipodi="http://sodipodi.sourceforge.net/DTD/sodipodi-0.dtd"
   xmlns:inkscape="http://www.inkscape.org/namespaces/inkscape"
   width="99.860802mm"
   height="99.860802mm"
   viewBox="0 0 99.860801 99.860802"
   version="1.1"
   id="svg833"
   inkscape:version="0.92.2 (5c3e80d, 2017-08-06)"
   sodipodi:docname="icon.svg">
  <defs
     id="defs827" />
  <sodipodi:namedview
     id="base"
     pagecolor="#ffffff"
     bordercolor="#666666"
     borderopacity="1.0"
     inkscape:pageopacity="0.0"
     inkscape:pageshadow="2"
     inkscape:zoom="1.4"
     inkscape:cx="303.58274"
     inkscape:cy="-23.803933"
     inkscape:document-units="mm"
     inkscape:current-layer="layer1"
     showgrid="false"
     inkscape:window-width="2736"
     inkscape:window-height="1699"
     inkscape:window-x="-13"
     inkscape:window-y="-13"
     inkscape:window-maximized="1" />
  <metadata
     id="metadata830">
    <rdf:RDF>
      <cc:Work
         rdf:about="">
        <dc:format>image/svg+xml</dc:format>
        <dc:type
           rdf:resource="http://purl.org/dc/dcmitype/StillImage" />
        <dc:title></dc:title>
      </cc:Work>
    </rdf:RDF>
  </metadata>
  <g
     inkscape:label="Layer 1"
     inkscape:groupmode="layer"
     id="layer1"
     transform="translate(-44.108314,-61.105318)">
    <path
       id="path3338-3"
       d="m 93.739943,160.10808 c -0.8347,-0.34734 -1.91655,-0.9193 -3.11958,-1.64932 -4.36028,-2.64584 -4.52575,-2.76352 -7.78385,-5.53632 -0.78153,-0.66511 -1.61032,-1.36254 -1.84177,-1.54983 -2.93348,-2.37393 -6.11248,-5.51329 -8.71378,-8.60517 -1.98406,-2.35823 -4.21782,-5.44164 -5.97503,-8.24771 -1.98699,-3.17298 -3.04186,-5.01876 -4.16737,-7.29184 -3.09566,-6.25202 -5.36043,-13.3231 -7.16105,-22.35822 -0.33736,-1.69281 -0.4323,-2.32432 -0.58387,-3.88397 -0.0309,-0.31837 -0.067,-0.67356 -0.08,-0.78933 -0.0388,-0.342927 -0.17695,-1.975801 -0.26052,-3.078383 -0.0428,-0.564369 -0.0903,-1.180044 -0.10565,-1.368166 -0.056,-0.686832 -0.18718,-2.79922 -0.26308,-4.236061 -0.0428,-0.810374 -0.10165,-1.899645 -0.13076,-2.420604 -0.0291,-0.520957 -0.0772,-1.551029 -0.10681,-2.289052 -0.0296,-0.73802 -0.0651,-1.554974 -0.0788,-1.815452 -0.0137,-0.260477 -0.0612,-1.34975 -0.10542,-2.420605 -0.0442,-1.070855 -0.10274,-2.408765 -0.13001,-2.973135 -0.0273,-0.564369 -0.0505,-1.962589 -0.0515,-3.107156 l -0.002,-2.08103 0.32889,-0.05879 c 0.18089,-0.03233 0.79064,-0.144154 1.35501,-0.248489 0.86331,-0.159599 3.11046,-0.537601 5.02539,-0.84534 6.05442,-0.972971 8.84094,-1.534803 12.31352,-2.482711 4.60425,-1.256814 9.88718,-3.213546 14.89198,-5.515807 0.23154,-0.106508 0.52754,-0.242018 0.65778,-0.301131 0.88466,-0.401537 2.50867,-1.189921 4.41418,-2.142888 l 2.21568,-1.108086 h 0.3781 c 0.37698,0 0.38183,0.0019 1.64468,0.62669 2.42885,1.201772 2.69563,1.331638 3.976597,1.935818 8.0776,3.809835 14.29927,6.016852 21.18033,7.513303 1.75473,0.381607 3.58263,0.713051 6.68298,1.211791 1.5196,0.244453 2.57343,0.416918 4.36761,0.714779 0.37004,0.06144 2.58829,0.485271 3.23624,0.618344 l 0.44728,0.09186 0.0149,1.28703 c 0.008,0.707865 -0.0217,2.175022 -0.0663,3.260348 -0.12479,3.032101 -0.23138,5.541091 -0.26379,6.209378 -0.0162,0.332831 -0.0642,1.374746 -0.10689,2.315362 -0.25234,5.565049 -0.60727,11.092419 -0.84479,13.155463 -0.523,4.54258 -1.91718,10.80065 -3.59439,16.13418 -1.27577,4.05694 -3.48023,9.28504 -5.26736,12.4921 -2.19275,3.9349 -4.45548,7.42896 -7.10517,10.97165 -1.3617,1.82059 -2.03634,2.64448 -3.33955,4.07819 -1.64594,1.81079 -4.86759,4.9537 -6.39964,6.24322 -0.13261,0.11163 -0.64172,0.54703 -1.13137,0.96756 -1.23979,1.06482 -2.19938,1.85792 -3.75255,3.10148 -1.32615,1.06182 -2.54546,1.89402 -4.741597,3.23621 -2.12656,1.29971 -4.55138,2.50333 -5.03585,2.49969 -0.11725,-7.9e-4 -0.45695,-0.1084 -0.82093,-0.25986 z"
       style="fill:#ffffff;fill-opacity:1;stroke:none;stroke-width:0.26458332"
       inkscape:connector-curvature="0"
       sodipodi:nodetypes="csccssssscssssscssccssssccscscsssssccccccsscccsccccc" />
    <path
       id="path3338"
       d="m 93.739943,160.10808 c -0.834696,-0.34734 -1.916548,-0.9193 -3.119579,-1.64932 -4.360282,-2.64584 -4.525748,-2.76352 -7.783854,-5.53632 -0.781525,-0.66511 -1.610319,-1.36254 -1.841766,-1.54983 -2.933477,-2.37393 -6.112476,-5.51329 -8.713782,-8.60517 -1.984054,-2.35823 -4.217818,-5.44164 -5.975033,-8.24771 -1.986981,-3.17298 -3.041853,-5.01876 -4.167358,-7.29184 -3.095658,-6.25202 -5.360432,-13.3231 -7.161051,-22.35823 -0.337362,-1.69281 -0.432297,-2.32432 -0.583869,-3.88397 -0.03094,-0.31837 -0.06695,-0.67356 -0.08005,-0.78933 -0.03877,-0.342925 -0.176955,-1.975798 -0.260522,-3.078381 -0.04277,-0.564368 -0.09032,-1.180044 -0.105655,-1.368166 -0.056,-0.686832 -0.187177,-2.799219 -0.263072,-4.236059 -0.0428,-0.810376 -0.101649,-1.899647 -0.130766,-2.420606 -0.02912,-0.520955 -0.07717,-1.551028 -0.106803,-2.289051 -0.02962,-0.73802 -0.06511,-1.554974 -0.07885,-1.815452 -0.01374,-0.260477 -0.06118,-1.34975 -0.10542,-2.420605 -0.04423,-1.070855 -0.102742,-2.408765 -0.130011,-2.973135 -0.02726,-0.564369 -0.05046,-1.962589 -0.05154,-3.107156 l -0.002,-2.08103 0.328887,-0.05879 c 0.180888,-0.03233 0.790643,-0.144154 1.355013,-0.248489 0.863304,-0.159599 3.110454,-0.537601 5.025385,-0.84534 6.054413,-0.972971 8.840935,-1.534803 12.31352,-2.482711 4.604242,-1.256814 9.887174,-3.213546 14.891981,-5.515807 0.231539,-0.106508 0.527537,-0.242018 0.657775,-0.301131 0.88466,-0.401537 2.508672,-1.189921 4.414185,-2.142888 l 2.215678,-1.108086 h 0.378096 c 0.376979,0 0.381833,0.0019 1.644679,0.62669 2.428856,1.201772 2.695629,1.331638 3.976599,1.935818 8.0776,3.809835 14.29928,6.016852 21.18034,7.513303 1.75473,0.381607 3.58263,0.713051 6.68298,1.211791 1.5196,0.244453 2.57343,0.416918 4.36761,0.714779 0.37004,0.06144 2.58829,0.485271 3.23624,0.618344 l 0.44728,0.09186 0.0149,1.28703 c 0.008,0.707865 -0.0217,2.175022 -0.0663,3.260348 -0.12479,3.032101 -0.23138,5.541091 -0.26379,6.209378 -0.0162,0.332831 -0.0642,1.374746 -0.10689,2.315362 -0.25234,5.565047 -0.60727,11.092418 -0.84479,13.15546 -0.523,4.54258 -1.91718,10.80066 -3.59439,16.13419 -1.27577,4.05694 -3.48023,9.28504 -5.26736,12.4921 -2.19275,3.9349 -4.45548,7.42896 -7.10517,10.97165 -1.3617,1.82059 -2.03634,2.64448 -3.33955,4.07819 -1.64594,1.81079 -4.86759,4.9537 -6.39964,6.24322 -0.13261,0.11163 -0.64172,0.54703 -1.13137,0.96756 -1.23979,1.06482 -2.19938,1.85792 -3.75255,3.10148 -1.32615,1.06182 -2.54546,1.89402 -4.7416,3.23621 -2.126566,1.29971 -4.551382,2.50333 -5.035854,2.49969 -0.11725,-7.8e-4 -0.456953,-0.1084 -0.820928,-0.25986 z m 1.673349,-3.44636 c 0.692066,-0.25602 1.94236,-0.87113 2.762648,-1.35914 1.291967,-0.76863 2.66484,-1.6033 3.11827,-1.89582 1.23828,-0.79885 2.80912,-2.01915 4.74873,-3.68899 0.66567,-0.57309 1.67121,-1.43602 2.23451,-1.9176 1.55464,-1.32908 2.05968,-1.7977 3.63524,-3.37299 2.68478,-2.68435 4.01995,-4.26417 6.33919,-7.50077 4.61708,-6.44332 7.33755,-11.53984 9.73289,-18.23348 1.20951,-3.37993 2.37686,-7.75121 3.31642,-12.41874 0.58784,-2.92032 0.85643,-5.3415 1.15579,-10.419134 0.10671,-1.809947 0.12937,-2.170818 0.18829,-2.999445 0.0277,-0.390718 0.0857,-1.58655 0.12885,-2.657402 0.0431,-1.070854 0.10265,-2.479808 0.13238,-3.131002 0.16441,-3.601557 0.21684,-5.148204 0.2464,-7.267235 l 0.0327,-2.347092 -0.86317,-0.163819 c -1.21,-0.229647 -2.61445,-0.468514 -5.62544,-0.956773 -4.27917,-0.693906 -6.23243,-1.059907 -8.47211,-1.587502 -6.07328,-1.43066 -11.49667,-3.434233 -19.111541,-7.060404 -0.945988,-0.450478 -2.154996,-1.042143 -2.686688,-1.314815 -1.1654,-0.597661 -1.529813,-0.694571 -2.024933,-0.538496 -0.163,0.05138 -0.874419,0.388762 -1.580931,0.749734 -4.625035,2.363035 -10.193443,4.745114 -14.509623,6.206987 -4.761288,1.61263 -8.612174,2.498724 -15.970731,3.67489 -2.617822,0.418425 -5.611098,0.910211 -5.775247,0.948858 l -0.1184,0.02787 -1.56e-4,1.880227 c -1.59e-4,2.266102 0.119554,6.485126 0.240026,8.457959 0.01414,0.231539 0.07306,1.391849 0.130939,2.578473 0.272336,5.583507 0.61567,10.475411 0.895006,12.752261 0.126154,1.02828 0.764362,4.23397 1.29164,6.48785 1.639228,7.00698 4.140555,13.90577 6.703932,18.48976 2.393858,4.28084 4.854314,8.02693 7.516035,11.44327 2.863417,3.6752 6.643008,7.285 12.901287,12.32167 1.242975,1.00034 1.588064,1.23923 3.239108,2.24225 0.664091,0.40343 1.606123,0.97649 2.093403,1.27345 0.884211,0.53886 2.071325,1.1472 2.718632,1.39316 0.422966,0.16073 0.568323,0.1492 1.236613,-0.098 z m -1.444557,-2.53307 c -0.328229,-0.0882 -1.550869,-0.74933 -3.08092,-1.66594 -2.730171,-1.63555 -5.021822,-3.33843 -6.841198,-5.08355 -0.260673,-0.25003 -0.722429,-0.65992 -1.026125,-0.91085 -3.077178,-2.54261 -3.363209,-2.81335 -5.57756,-5.27927 -0.188123,-0.20948 -0.600423,-0.66193 -0.916224,-1.0054 -2.305927,-2.50805 -4.688903,-5.88396 -7.592291,-10.75585 -3.416757,-5.73331 -5.763651,-11.99205 -7.72614,-20.60419 -0.970859,-4.26049 -1.26724,-6.66362 -1.60267,-12.994855 -0.03219,-0.607782 -0.104159,-1.862812 -0.159908,-2.788957 -0.114705,-1.90555 -0.237735,-4.790915 -0.315249,-7.393371 -0.05825,-1.955895 -0.06975,-5.611271 -0.01897,-6.033933 l 0.03266,-0.27184 0.32208,-0.0582 c 0.604674,-0.10928 4.00207,-0.679631 5.97893,-1.003735 6.867292,-1.125884 10.87084,-2.137634 15.899774,-4.018083 3.324826,-1.24324 6.218066,-2.525912 10.38484,-4.603953 2.365991,-1.179962 2.368322,-1.180976 2.771277,-1.205772 0.584703,-0.03599 0.92473,0.08615 2.670528,0.959166 6.689571,3.345241 12.584011,5.682693 17.659241,7.00282 2.80302,0.729101 4.68432,1.106691 9.1825,1.843 3.08213,0.504512 3.6576,0.604709 5.17628,0.901265 l 1.25594,0.245249 -0.035,1.293404 c -0.0349,1.289114 -0.11756,3.45733 -0.26668,7.002874 -0.0432,1.027439 -0.10145,2.495591 -0.12942,3.262555 -0.0279,0.76696 -0.0861,1.950954 -0.12925,2.631092 -0.0431,0.680138 -0.12812,2.112765 -0.18892,3.183619 -0.33023,5.815825 -0.68046,8.368455 -1.84471,13.444875 -1.22886,5.35819 -3.13061,10.8445 -5.3354,15.39189 -0.68217,1.407 -2.67756,4.87306 -3.93584,6.8367 -0.58572,0.91409 -0.98425,1.49289 -2.32162,3.37194 -1.66612,2.34093 -2.42068,3.29563 -3.45202,4.36762 -0.33414,0.34729 -0.89153,0.94996 -1.23865,1.33923 -1.66067,1.86243 -2.82733,2.98351 -4.57528,4.39655 -0.68771,0.55593 -1.36267,1.13815 -1.9758,1.70431 -1.78883,1.65179 -3.55714,2.9847 -5.709508,4.30369 -1.542179,0.94507 -3.675262,2.07368 -4.155024,2.1984 -0.385375,0.10018 -0.804805,0.0993 -1.183548,-0.002 z m 1.59594,-17.7005 c 1.743848,-0.44599 2.932054,-2.14605 2.71983,-3.89145 -0.109872,-0.90364 -0.407295,-1.51556 -1.053701,-2.16788 -0.382459,-0.38596 -0.523759,-0.48899 -0.94925,-0.69216 -0.668171,-0.31907 -0.952698,-0.38147 -1.71021,-0.37513 -0.529522,0.005 -0.699603,0.0275 -1.053547,0.14319 -1.543718,0.50438 -2.552868,1.88052 -2.550272,3.47769 0.0011,0.59947 0.104213,1.04509 0.366828,1.58339 0.442913,0.90788 1.2006,1.56119 2.158242,1.86095 0.449435,0.14068 0.512237,0.1494 1.136108,0.15782 0.375828,0.005 0.649289,-0.0231 0.935972,-0.0964 z m -4.808415,-1.81049 c 0,-0.0109 -0.03719,-0.12332 -0.08266,-0.24996 -0.309689,-0.86258 -0.299787,-1.98134 0.0251,-2.83503 0.06058,-0.15918 0.110154,-0.30719 0.110167,-0.3289 1.6e-5,-0.0218 -0.367009,-0.0394 -0.81561,-0.0394 -0.448602,0 -0.816526,-0.006 -0.817605,-0.0132 -0.0011,-0.007 -0.20098,-1.98452 -0.444224,-4.39398 -0.243243,-2.40948 -0.456874,-4.40449 -0.474736,-4.43339 -0.01785,-0.0289 -0.232361,-0.0526 -0.47666,-0.0526 h -0.444178 v 6.18306 6.18306 h 1.710209 c 0.940614,0 1.71021,-0.009 1.71021,-0.0197 z m 11.16464,-5.51875 c 0.01,-3.04615 0.0103,-5.82261 0.002,-6.16991 l -0.016,-0.63147 -0.45756,0.0186 c -0.25167,0.0103 -0.46059,0.022 -0.46428,0.0262 -0.004,0.004 -0.20467,1.99092 -0.4466,4.41482 l -0.43987,4.40707 h -0.83512 c -0.774977,0 -0.832348,0.007 -0.796539,0.0921 0.27257,0.65046 0.312411,0.8716 0.310475,1.72336 -0.0019,0.83596 -0.03381,1.02964 -0.257925,1.5655 -0.03622,0.0865 0.06339,0.0921 1.672969,0.0921 h 1.71108 l 0.0175,-5.53844 z m -23.567087,-1.97892 c 1.047414,-0.60411 2.673984,-1.54332 3.6146,-2.08715 0.940613,-0.54382 2.183804,-1.26054 2.762645,-1.59273 0.57884,-0.33217 1.328569,-0.76702 1.666067,-0.96631 l 0.613627,-0.36237 -0.218965,-0.39257 c -0.120431,-0.21591 -0.236051,-0.39308 -0.256936,-0.39369 -0.03633,-9.9e-4 -3.791554,1.6802 -6.71633,3.00704 -0.762781,0.34604 -1.393186,0.6218 -1.400898,0.61279 -0.0077,-0.009 -0.184953,-0.31237 -0.393869,-0.67415 -0.208914,-0.36177 -0.397696,-0.67657 -0.419517,-0.69957 -0.02183,-0.0231 -0.136628,0.0836 -0.255134,0.23681 -0.522838,0.67602 -1.484762,1.25697 -2.354385,1.42194 -0.21142,0.0401 -0.338089,0.0891 -0.329081,0.12728 0.0081,0.0341 0.381688,0.70264 0.830286,1.48558 0.532327,0.92906 0.839582,1.41519 0.884569,1.39951 0.03791,-0.0133 0.925907,-0.5183 1.973321,-1.12241 z m 35.444047,-0.32117 c 0.46682,-0.80921 0.84877,-1.48136 0.84877,-1.49366 0,-0.0124 -0.12433,-0.0382 -0.27627,-0.0576 -0.40778,-0.0521 -1.12286,-0.34037 -1.55232,-0.62586 -0.20754,-0.13797 -0.55246,-0.43937 -0.76651,-0.66979 l -0.3892,-0.41892 -0.37459,0.64522 c -0.20602,0.35486 -0.39462,0.67525 -0.41909,0.71196 -0.0341,0.0511 -0.15501,0.0157 -0.51442,-0.15045 -1.05982,-0.4899 -7.47512,-3.37683 -7.55558,-3.40011 -0.0635,-0.0183 -0.14543,0.0749 -0.30258,0.34404 -0.11858,0.20303 -0.21543,0.38872 -0.2152,0.41262 0,0.024 0.45609,0.30829 1.01298,0.63201 2.93716,1.70733 9.59435,5.54104 9.62259,5.54143 0.018,0 0.41459,-0.66165 0.88142,-1.47085 z m -18.016215,-2.00175 v -0.4999 l 0.226802,-0.285 c 0.304194,-0.38222 0.382179,-0.54516 0.414223,-0.86545 0.03076,-0.30744 -0.122209,-0.79445 -0.300085,-0.95543 -0.101025,-0.0914 -0.104168,-0.0904 -0.104996,0.0323 -5.23e-4,0.0696 -0.02246,0.38755 -0.04886,0.70651 -0.05134,0.62024 -0.175706,1.04002 -0.396994,1.33996 -0.12262,0.1662 -0.125506,0.184 -0.04436,0.27368 0.06885,0.076 0.07504,0.12168 0.02994,0.22067 -0.05249,0.1152 -0.02105,0.40756 0.0714,0.66413 0.06938,0.1925 0.152922,-0.15247 0.152922,-0.63147 z m -20.708151,-0.13825 c 0.966107,-0.21601 1.917444,-0.97333 2.359873,-1.87859 0.308881,-0.63201 0.351769,-0.83637 0.349774,-1.66669 -0.0019,-0.72488 -0.01004,-0.7845 -0.165887,-1.19314 -0.433741,-1.13725 -1.264375,-1.95353 -2.358127,-2.3174 -0.369367,-0.12289 -0.504842,-0.14004 -1.105061,-0.14004 -0.599188,0 -0.736327,0.0173 -1.105058,0.13953 -0.958432,0.31765 -1.689799,0.9531 -2.133275,1.85347 -0.282422,0.57338 -0.370967,0.95004 -0.373178,1.58745 -0.0036,1.01916 0.357367,1.89358 1.084449,2.62745 0.938192,0.94698 2.117642,1.28507 3.44649,0.98796 z m 40.783426,0.0276 c 0.60286,-0.12663 1.30815,-0.51834 1.77647,-0.98667 0.46456,-0.46455 0.75318,-0.95414 0.96697,-1.64026 0.18182,-0.58352 0.17218,-1.48941 -0.0222,-2.07724 -0.32958,-0.99724 -0.96716,-1.7276 -1.90569,-2.18305 -1.03002,-0.49985 -2.12517,-0.48927 -3.17854,0.0307 -0.86562,0.42729 -1.56588,1.24936 -1.88823,2.21665 -0.11883,0.3566 -0.13638,0.49738 -0.13628,1.09339 0,0.60002 0.0173,0.7358 0.14017,1.10505 0.36075,1.08437 1.15544,1.91278 2.20098,2.29437 0.67415,0.24602 1.34538,0.29427 2.04626,0.14706 z m -20.129775,-1.12588 c 0.0511,-0.19683 0.08024,-0.52381 0.07739,-0.86827 -0.0026,-0.30388 0.02039,-1.0498 0.0509,-1.65758 0.03051,-0.60778 0.05598,-1.58901 0.05663,-2.1805 l 0.0011,-1.07544 -0.153607,0.14717 c -0.08449,0.0809 -0.229952,0.2904 -0.323263,0.46547 l -0.169656,0.31831 0.03194,0.6889 c 0.01757,0.37888 0.05504,1.09145 0.08328,1.58347 0.07529,1.31204 0.108445,2.10066 0.109443,2.6029 7.85e-4,0.38983 0.01044,0.4358 0.07737,0.36835 0.04206,-0.0424 0.113362,-0.21913 0.158441,-0.39278 z m -0.506998,-1.98648 c -0.0199,-0.26771 -0.0866,-0.64068 -0.148238,-0.82879 -0.156103,-0.47645 -0.189227,-1.08791 -0.08553,-1.57866 0.135734,-0.64233 0.372402,-1.04825 1.058477,-1.81544 0.336461,-0.37625 0.719779,-0.84568 0.851818,-1.04318 0.708719,-1.06007 0.628065,-1.91274 -0.260231,-2.7512 l -0.38121,-0.35982 -0.03904,0.77779 c -0.06343,1.2639 -0.166178,1.56157 -0.94284,2.73145 -0.453315,0.68282 -0.730552,1.22849 -0.822274,1.61845 -0.196727,0.8364 -0.07054,2.12236 0.28915,2.94666 0.137825,0.31585 0.426781,0.78949 0.481652,0.78949 0.01893,0 0.01814,-0.21903 -0.0019,-0.48675 z m -24.05556,-3.39718 c 0.634639,-0.63445 1.36553,-1.01755 2.239193,-1.17369 0.195592,-0.0349 0.355622,-0.0815 0.355622,-0.10339 0,-0.022 -0.102037,-0.21349 -0.226756,-0.42571 -0.124715,-0.21222 -0.302725,-0.51969 -0.395576,-0.68328 l -0.168824,-0.29742 0.250868,-0.18188 c 0.137977,-0.10002 1.742699,-1.25371 3.566047,-2.56372 1.823346,-1.31002 3.334912,-2.39989 3.359032,-2.42193 0.03324,-0.0303 -0.31538,-0.73447 -0.412365,-0.83282 -0.02397,-0.0243 -1.728488,0.95361 -9.857216,5.65518 -0.443527,0.25654 -0.804641,0.49009 -0.802477,0.51904 0.0038,0.0505 1.644158,2.92051 1.669235,2.92051 0.0067,0 0.197163,-0.1849 0.423217,-0.41089 z m 48.218993,-1.06365 c 0.63854,-1.1042 0.8212,-1.45969 0.77279,-1.50403 -0.0348,-0.0319 -1.72097,-1.01252 -3.74692,-2.17909 -2.02594,-1.16655 -4.23999,-2.44413 -4.92014,-2.83904 -0.68013,-0.39491 -1.39391,-0.80525 -1.58616,-0.91186 l -0.34955,-0.19385 -0.2236,0.37638 c -0.15262,0.25689 -0.20869,0.3991 -0.17667,0.44796 0.0405,0.0618 4.48914,3.28348 6.45335,4.67348 0.36807,0.26047 0.66967,0.49553 0.67023,0.52233 5.2e-4,0.0268 -0.17733,0.35562 -0.3953,0.7307 -0.21795,0.37508 -0.38962,0.68763 -0.38151,0.69456 0.008,0.007 0.17929,0.0407 0.38035,0.0751 0.83108,0.14217 1.70192,0.61328 2.26553,1.22562 0.17365,0.18866 0.335,0.33959 0.35858,0.33537 0.0236,-0.004 0.41912,-0.65836 0.87902,-1.45365 z m -23.738461,-1.26179 c 0.112758,-0.21707 0.232987,-0.48939 0.267177,-0.60515 0.07316,-0.24773 0.138207,-1.64543 0.206933,-4.44655 0.02733,-1.11427 0.06645,-2.0733 0.0869,-2.13119 0.04784,-0.13533 -0.87403,0.76482 -1.111978,1.0858 -0.177301,0.23918 -0.180764,0.25381 -0.180552,0.76302 1.04e-4,0.28554 0.02322,0.83884 0.0513,1.22957 0.0281,0.39071 0.07518,1.40894 0.10462,2.26273 0.02944,0.85379 0.06873,1.77614 0.0873,2.04967 l 0.03377,0.49731 0.124757,-0.15527 c 0.06862,-0.0853 0.21701,-0.33288 0.329769,-0.54994 z m -0.817096,-2.95999 -0.03517,-0.80248 -0.17425,-0.19496 c -0.229252,-0.2565 -0.383954,-0.56699 -0.422458,-0.84791 -0.06049,-0.44128 0.245716,-0.86567 1.85477,-2.57073 1.185361,-1.25607 1.779993,-2.16452 1.916383,-2.92773 0.05732,-0.32078 0.05419,-0.41603 -0.024,-0.72892 -0.130641,-0.52278 -0.27715,-0.7798 -0.635515,-1.11483 -0.289515,-0.27067 -0.728139,-0.53423 -0.788553,-0.47381 -0.01338,0.0134 -0.03919,0.46111 -0.05732,0.9949 -0.01814,0.53379 -0.05518,1.05927 -0.08234,1.16773 -0.0726,0.28994 -0.56006,0.97815 -1.334629,1.88429 -1.080653,1.26421 -1.471505,1.84413 -1.731386,2.56892 -0.452866,1.263 0.0065,2.62796 1.215949,3.61318 0.158557,0.12916 0.298503,0.23484 0.310992,0.23484 0.01249,0 0.0069,-0.36111 -0.01247,-0.80249 z m 20.581617,-7.15597 c 2.60478,-1.50361 4.75476,-2.75156 4.77774,-2.77321 0.0231,-0.0217 -0.343,-0.70478 -0.81327,-1.51805 l -0.85503,-1.47869 -0.28431,0.31417 c -0.60269,0.666 -1.48286,1.14588 -2.39956,1.3083 -0.17114,0.0303 -0.31942,0.0635 -0.32953,0.0736 -0.0101,0.0101 0.14784,0.30469 0.35098,0.65465 0.20315,0.34994 0.38266,0.6709 0.3989,0.71324 0.0207,0.0541 -0.27209,0.29262 -0.98704,0.80376 -1.71148,1.22362 -6.11874,4.3978 -6.15573,4.43345 -0.0192,0.0185 0.0709,0.21544 0.19991,0.43771 l 0.23477,0.40411 0.56309,-0.31956 c 0.30973,-0.17576 2.6943,-1.54977 5.29908,-3.05339 z m -35.446081,2.94969 c 0.175294,-0.30278 0.205459,-0.39031 0.151512,-0.43967 -0.07722,-0.0707 -3.358812,-2.43292 -5.54003,-3.98802 -0.810377,-0.57777 -1.504576,-1.07906 -1.542667,-1.11401 -0.05636,-0.0517 0.0056,-0.19335 0.3327,-0.76038 0.221079,-0.38327 0.393636,-0.70517 0.383464,-0.71534 -0.01017,-0.0102 -0.207246,-0.0569 -0.437944,-0.10384 -0.835665,-0.17001 -1.586041,-0.58111 -2.196672,-1.20345 -0.196037,-0.1998 -0.368711,-0.35099 -0.383719,-0.33599 -0.01501,0.015 -0.40174,0.67552 -0.85941,1.4678 l -0.832122,1.4405 0.137094,0.0871 c 0.0754,0.0479 1.664441,0.96785 3.531202,2.04424 1.86676,1.0764 3.997945,2.30697 4.735965,2.73461 1.981564,1.14819 2.178138,1.25877 2.24278,1.26173 0.03243,0.002 0.157466,-0.16742 0.277847,-0.37535 z m 15.290336,-1.89785 c 0.726499,-0.86052 0.919558,-1.17151 0.973874,-1.56883 0.04419,-0.32328 0.0923,-1.66107 0.214398,-5.96223 0.05151,-1.814232 0.04914,-1.946549 -0.03641,-2.041085 -0.08044,-0.08887 -0.097,-0.09121 -0.137208,-0.01939 -0.06765,0.120888 -0.643326,0.395866 -0.828754,0.395866 -0.08837,0 -0.325257,-0.08287 -0.526407,-0.184176 -0.558055,-0.281033 -0.569321,-0.275345 -0.546972,0.276265 0.01028,0.253241 0.04352,1.158995 0.07391,2.012785 0.03039,0.853785 0.07741,1.907535 0.104494,2.341665 0.02709,0.43413 0.06244,1.25109 0.07859,1.81546 0.01614,0.56438 0.04047,1.27476 0.05407,1.57865 0.06324,1.41333 0.08987,1.89439 0.104842,1.89439 0.0089,0 0.22112,-0.24272 0.471575,-0.53938 z m -0.847066,-3.53887 c -0.02642,-0.67695 -0.02,-0.92088 0.02424,-0.92088 0.0331,0 -0.128399,-0.18018 -0.358892,-0.40038 -0.230492,-0.22022 -0.504679,-0.52936 -0.609305,-0.68698 -0.406522,-0.61245 -0.639779,-1.576518 -0.588249,-2.431273 0.04716,-0.782385 0.351516,-1.369622 0.856844,-1.653277 0.35208,-0.197628 0.657076,-0.176273 1.206078,0.08445 0.224256,0.106498 0.449982,0.193634 0.501611,0.193634 0.05163,0 0.251226,-0.07364 0.44354,-0.163629 0.384578,-0.179965 0.392756,-0.205241 0.180109,-0.556635 -0.124956,-0.206488 -0.882471,-0.872229 -1.121566,-0.985687 -0.43642,-0.207095 -1.38322,-0.03347 -2.012433,0.369028 -1.069722,0.684292 -1.645151,2.138229 -1.436271,3.629035 0.23202,1.655954 1.101715,3.107354 2.469786,4.121724 0.238678,0.17696 0.444419,0.32176 0.457205,0.32176 0.01278,0 0.0071,-0.4144 -0.0127,-0.92089 z m 0.520869,-6.82561 c -0.113015,-0.05455 -0.20957,-0.232172 -0.155562,-0.286181 0.04583,-0.04583 0.346367,0.136289 0.40465,0.245191 0.04635,0.08659 0.0398,0.104081 -0.03791,0.101135 -0.05167,-0.0019 -0.146698,-0.02903 -0.211181,-0.06015 z m -19.879059,4.6156 c 1.262814,-0.3203 2.328738,-1.398752 2.659061,-2.690302 0.126456,-0.494441 0.13619,-1.268126 0.0221,-1.756347 -0.125313,-0.536237 -0.459892,-1.157033 -0.851618,-1.58013 -0.755067,-0.815542 -1.565499,-1.172697 -2.67149,-1.177316 -0.998073,-0.0042 -1.73654,0.283296 -2.448641,0.95319 -0.838378,0.788685 -1.226738,1.682325 -1.218606,2.804071 0.007,0.970473 0.359857,1.784392 1.083612,2.499764 0.928643,0.91789 2.178412,1.26342 3.425585,0.94707 z m 40.992461,-0.007 c 0.43213,-0.11147 0.98756,-0.39868 1.36717,-0.70696 1.02371,-0.831324 1.52146,-2.192897 1.26904,-3.47142 -0.1058,-0.535923 -0.44569,-1.265092 -0.79002,-1.694848 -0.71219,-0.888883 -1.91116,-1.417017 -3.03571,-1.337193 -0.92789,0.06586 -1.70541,0.426025 -2.37347,1.09945 -0.72884,0.734692 -1.08678,1.68553 -1.02533,2.723695 0.0339,0.571826 0.1287,0.926212 0.38542,1.44001 0.55685,1.114416 1.54783,1.843836 2.7647,2.034916 0.36254,0.0569 1.03714,0.0158 1.4382,-0.0876 z M 86.795894,96.857188 c 0.125071,-0.211764 0.220763,-0.390879 0.212652,-0.398033 -0.08205,-0.07238 -10.536525,-6.092825 -10.616296,-6.113632 -0.05828,-0.01522 -0.316722,0.388796 -0.930899,1.455232 -0.777311,1.3497 -0.840479,1.478261 -0.736705,1.499352 0.774896,0.157501 1.163257,0.305514 1.681844,0.640989 0.42291,0.273576 0.808173,0.622718 1.012509,0.917573 0.08044,0.116071 0.163946,0.192383 0.185579,0.169582 0.02165,-0.02279 0.210262,-0.337453 0.419176,-0.699228 0.208916,-0.361775 0.387862,-0.666849 0.39766,-0.67794 0.01686,-0.01908 1.107176,0.469182 5.967603,2.672308 1.143208,0.518193 2.101266,0.936915 2.129017,0.930492 0.02775,-0.0064 0.152786,-0.184935 0.27786,-0.396695 z m 19.247046,-1.070194 c 1.76547,-0.795429 3.55172,-1.602794 3.96944,-1.794144 0.41772,-0.191353 0.77806,-0.347911 0.80076,-0.347911 0.0358,0 0.15823,0.198607 0.75442,1.224285 l 0.11518,0.198161 0.23218,-0.292357 c 0.49357,-0.621534 1.39017,-1.186513 2.17918,-1.373198 0.20259,-0.04794 0.40839,-0.101645 0.45734,-0.119353 0.074,-0.02679 -0.0518,-0.275648 -0.74721,-1.47842 -0.45992,-0.795421 -0.8573,-1.453249 -0.88308,-1.461838 -0.04,-0.01332 -1.61251,0.887551 -9.11465,5.221507 -1.30918,0.756306 -1.52605,0.888268 -1.52605,0.928599 0,0.09573 0.44611,0.784884 0.495,0.764682 0.0316,-0.01307 1.50201,-0.674583 3.26749,-1.470013 z m -9.580195,1.003547 c 0.06925,-0.09887 0.08191,-0.337622 0.08191,-1.544451 V 93.818594 L 96.39291,93.60911 c -0.253219,-0.349555 -0.748384,-0.511175 -1.19646,-0.39052 -0.244275,0.06578 -0.667252,0.413052 -0.788376,0.647278 -0.122304,0.236512 -0.176596,0.704487 -0.136146,1.17355 l 0.0363,0.420973 0.30347,0.0326 c 0.2251,0.02418 0.376778,0.08129 0.587341,0.221092 0.423946,0.281485 0.964721,0.809203 1.038608,1.013526 0.07621,0.210785 0.114109,0.221376 0.225092,0.06292 z m -8.164917,-0.738154 c 0.016,-0.123003 0.210205,-2.058828 0.431557,-4.301836 0.221352,-2.243005 0.413206,-4.131473 0.426341,-4.196592 0.02352,-0.116658 0.03587,-0.118399 0.83852,-0.118399 0.448049,0 0.814624,-0.01775 0.814608,-0.03946 -1.3e-5,-0.0217 -0.04959,-0.169707 -0.110167,-0.328887 -0.324883,-0.853694 -0.334785,-1.972452 -0.0251,-2.83504 0.04547,-0.126643 0.08266,-0.239122 0.08266,-0.249953 0,-0.01083 -0.769596,-0.01969 -1.71021,-0.01969 h -1.710209 v 6.156757 6.156756 h 0.466444 0.466442 z m 13.632462,-0.210485 c 0.0186,-0.238773 0.0339,-3.009312 0.0341,-6.156757 l 2.6e-4,-5.722626 h -1.73094 -1.73093 l 0.137959,0.407818 c 0.126219,0.37312 0.137922,0.479461 0.137556,1.249768 -5.23e-4,0.863491 -0.02003,0.970916 -0.314531,1.723367 -0.0334,0.08535 0.02507,0.09209 0.798381,0.0922 l 0.834435,1.07e-4 0.39015,3.907061 c 0.21458,2.14888 0.41321,4.137935 0.4414,4.42012 l 0.0513,0.513063 h 0.45852 0.45853 l 0.0337,-0.434129 z m -6.368044,-6.650818 c 1.170413,-0.292603 2.141353,-1.182726 2.539769,-2.328373 0.273114,-0.785342 0.272566,-1.596202 -0.0016,-2.384606 -0.186595,-0.536556 -0.427205,-0.912523 -0.871654,-1.36201 -0.60739,-0.614277 -1.269512,-0.934348 -2.162373,-1.0453 -2.184122,-0.271408 -4.099625,1.411556 -4.099625,3.601933 0,2.112766 1.772447,3.760985 3.894015,3.621086 0.217065,-0.01432 0.532732,-0.06055 0.701483,-0.10273 z"
       style="fill:#083661;fill-opacity:1;stroke-width:0.26458332;stroke:none"
       inkscape:connector-curvature="0"
       sodipodi:nodetypes="csccssssscssssscssccssssccscscsssssccccccsscccsccccccsccccsscscccsccsssscsssccccsssssssccccccccccssssssccsssssssscscccscscccccccccccccccccscccscccscscscccssscccccccscccsccccsscccccccccccccccscccccccccccccsccccccccccssccccscccsscscccccccccccccccccccscccccccsccccsccsccscsccccsccccssscccccccsccccccssccccccssccsccccscscscccscscsccccccccccccssccsccsccscccscccccsccsscccccscccsscsccsccccscsccscccscscccsccccccscsccccccccsccccccsccscscccccccsscscsccsscccccccscscccssccccccccccccccccccccccccsccssccc" />
    <path
       style="opacity:0.6;fill:#fefefe;fill-opacity:1;stroke-width:1"
       d=""
       id="path1382"
       inkscape:connector-curvature="0"
       transform="matrix(0.26458333,0,0,0.26458333,44.108314,61.105318)" />
  </g>
</svg>
