<?xml version="1.0" encoding="UTF-8" standalone="no"?>
<svg
   xmlns:dc="http://purl.org/dc/elements/1.1/"
   xmlns:cc="http://creativecommons.org/ns#"
   xmlns:rdf="http://www.w3.org/1999/02/22-rdf-syntax-ns#"
   xmlns:svg="http://www.w3.org/2000/svg"
   xmlns="http://www.w3.org/2000/svg"
   xmlns:sodipodi="http://sodipodi.sourceforge.net/DTD/sodipodi-0.dtd"
   xmlns:inkscape="http://www.inkscape.org/namespaces/inkscape"
   viewBox="0 0 750.03357 377.42663"
   height="377.42664"
   width="750.03357"
   version="1.1"
   id="svg2"
   sodipodi:docname="letterhead.svg"
   inkscape:version="0.92.2 (5c3e80d, 2017-08-06)">
  <sodipodi:namedview
     pagecolor="#ffffff"
     bordercolor="#666666"
     borderopacity="1"
     objecttolerance="10"
     gridtolerance="10"
     guidetolerance="10"
     inkscape:pageopacity="0"
     inkscape:pageshadow="2"
     inkscape:window-width="2736"
     inkscape:window-height="1699"
     id="namedview825"
     showgrid="false"
     inkscape:zoom="2.1837305"
     inkscape:cx="456.07793"
     inkscape:cy="187.32406"
     inkscape:window-x="-13"
     inkscape:window-y="-13"
     inkscape:window-maximized="1"
     inkscape:current-layer="svg2" />
  <metadata
     id="metadata8">
    <rdf:RDF>
      <cc:Work
         rdf:about="">
        <dc:format>image/svg+xml</dc:format>
        <dc:type
           rdf:resource="http://purl.org/dc/dcmitype/StillImage" />
        <dc:title />
      </cc:Work>
    </rdf:RDF>
  </metadata>
  <defs
     id="defs6" />
  <path
     id="path3338"
     d="m 155.54252,376.43253 c -3.19301,-1.32866 -7.33148,-3.51666 -11.9335,-6.30918 -16.67963,-10.12126 -17.3126,-10.57147 -29.77601,-21.1784 -2.98961,-2.5443 -6.16004,-5.21221 -7.04541,-5.92869 C 95.566008,333.93518 83.405208,321.92597 73.454285,310.09842 65.864575,301.07739 57.319635,289.28229 50.597665,278.54804 42.996755,266.41022 38.961497,259.34953 34.656039,250.65418 22.814048,226.73797 14.150482,199.68859 7.262475,165.12601 5.971944,158.65039 5.60879,156.23463 5.028969,150.2684 4.910614,149.05055 4.772818,147.6918 4.722756,147.24894 4.574464,145.93714 4.045839,139.69082 3.726165,135.47305 3.562537,133.31414 3.380659,130.95896 3.321995,130.23933 3.10781,127.61195 2.605982,119.53132 2.315657,114.0349 2.151914,110.93492 1.926811,106.76807 1.815426,104.77522 1.704042,102.78238 1.520191,98.841986 1.406869,96.018786 1.293546,93.195596 1.157812,90.070456 1.105237,89.074036 1.052657,88.077618 0.871192,83.91076 0.701968,79.814361 0.532745,75.717962 0.308943,70.599979 0.204631,68.441066 0.100319,66.282153 0.011609,60.933464 0.0075,56.555089 L 0,48.594411 1.258108,48.369522 C 1.950067,48.245833 4.282599,47.81808 6.441512,47.418962 9.743959,46.808439 18.340108,45.362449 25.665399,44.18524 48.825675,40.463278 59.485115,38.314072 72.768985,34.687987 90.381848,29.880226 110.59094,22.39503 129.73611,13.588068 c 0.88571,-0.407434 2.01801,-0.925807 2.51622,-1.151938 3.38414,-1.536023 9.59656,-4.551873 16.88582,-8.197312 L 157.61391,0 h 1.44635 c 1.44208,0 1.46065,0.0071 6.29148,2.397312 9.29124,4.597202 10.31175,5.093987 15.21193,7.405192 30.89951,14.573971 54.69961,23.016597 81.02214,28.741055 6.71246,1.459781 13.70482,2.727672 25.56475,4.635529 5.81304,0.93512 9.84432,1.594858 16.70767,2.734283 1.41555,0.235003 9.90113,1.856333 12.37978,2.365388 l 1.71103,0.351404 0.057,4.923345 c 0.0313,2.707838 -0.0829,8.320235 -0.25372,12.471991 -0.47735,11.598863 -0.88508,21.196639 -1.0091,23.753077 -0.0618,1.2732 -0.24576,5.25889 -0.40892,8.85708 -0.96522,21.288284 -2.32301,42.432444 -3.2316,50.324314 -2.00064,17.37697 -7.33386,41.3164 -13.74979,61.71901 -4.88029,15.51925 -13.31314,35.5186 -20.14959,47.7867 -8.38802,15.05244 -17.04374,28.41844 -27.1798,41.97047 -5.20895,6.96445 -7.78972,10.11606 -12.77495,15.60054 -6.29632,6.9269 -18.62024,18.94966 -24.48085,23.88255 -0.50731,0.42699 -2.45486,2.09257 -4.32789,3.70126 -4.74262,4.07329 -8.41338,7.1072 -14.35475,11.86427 -5.07297,4.06182 -9.73725,7.24526 -18.13823,12.37966 -8.13488,4.97181 -17.41066,9.57608 -19.26394,9.56219 -0.44852,-0.003 -1.74801,-0.41471 -3.14034,-0.99409 z m 6.40115,-13.1835 c 2.6474,-0.97939 7.43022,-3.33239 10.56811,-5.19921 4.94224,-2.94028 10.19395,-6.13316 11.92847,-7.25217 4.73687,-3.05592 10.74585,-7.72396 18.16547,-14.1117 2.54641,-2.19229 6.39292,-5.49327 8.54778,-7.3355 5.94699,-5.08422 7.87896,-6.87684 13.90604,-12.90291 10.27027,-10.2686 15.37774,-16.31194 24.24969,-28.69311 17.66193,-24.64797 28.06873,-44.14397 37.23172,-69.7495 4.62684,-12.92946 9.09236,-29.65117 12.6865,-47.50615 2.24871,-11.17121 3.27613,-20.43311 4.42131,-39.85686 0.40821,-6.92369 0.49487,-8.30415 0.72028,-11.47394 0.10629,-1.49464 0.3281,-6.06912 0.4929,-10.16551 0.16482,-4.0964 0.39269,-9.486144 0.5064,-11.977194 0.62892,-13.777237 0.82951,-19.693713 0.94256,-27.799756 l 0.12521,-8.978464 -3.30192,-0.626666 c -4.62869,-0.87848 -10.0012,-1.79223 -21.5193,-3.659995 -16.36937,-2.654439 -23.84129,-4.054523 -32.40886,-6.072758 -23.23244,-5.472785 -43.9788,-13.137164 -73.10826,-27.008556 -3.61873,-1.723235 -8.24362,-3.986569 -10.27753,-5.029633 -4.45807,-2.286266 -5.85208,-2.656979 -7.74609,-2.059943 -0.62353,0.19655 -3.34496,1.487152 -6.04762,2.868002 -17.6924,9.039451 -38.99354,18.151745 -55.504462,23.743932 -18.21362,6.168883 -32.944623,9.558509 -61.093722,14.057764 -10.014101,1.60062 -21.464444,3.481879 -22.092373,3.629714 l -0.452919,0.106631 -6.04e-4,7.192542 c -6.04e-4,8.668643 0.45734,24.807906 0.918188,32.354696 0.05408,0.885714 0.279485,5.324314 0.500887,9.863574 1.041784,21.3589 2.355158,40.07216 3.42372,48.78193 0.482584,3.93352 2.923956,16.19641 4.940984,24.81833 6.270629,26.80421 15.839092,53.19448 25.644916,70.72987 9.15736,16.37579 18.56948,30.70586 28.75151,43.77458 10.953583,14.05899 25.411865,27.86772 49.352005,47.13478 4.75482,3.82668 6.07491,4.74049 12.39074,8.5774 2.54038,1.5433 6.14399,3.73545 8.00801,4.87143 3.38242,2.06131 7.92355,4.38842 10.39973,5.32933 1.618,0.61482 2.17404,0.57074 4.73049,-0.37498 z m -5.52594,-9.68991 c -1.2556,-0.33749 -5.93263,-2.86649 -11.78562,-6.37281 -10.44387,-6.25658 -19.21025,-12.77068 -26.17001,-19.44636 -0.99717,-0.95648 -2.76355,-2.52445 -3.92529,-3.48435 -11.7713,-9.72638 -12.86547,-10.76204 -21.336152,-20.19507 -0.71964,-0.80138 -2.29683,-2.53212 -3.50488,-3.84604 -8.82099,-9.59415 -17.936723,-22.50822 -29.043213,-41.14492 -13.07031,-21.93198 -22.048014,-45.87385 -29.555234,-78.81836 -3.713878,-16.29789 -4.84764,-25.49073 -6.130779,-49.70994 -0.123178,-2.32498 -0.398446,-7.12592 -0.611706,-10.66875 C 23.91606,112.58311 23.445427,101.54557 23.148908,91.590246 22.926058,84.108255 22.8821,70.125143 23.076348,68.508314 l 0.124933,-1.039888 1.232072,-0.222669 c 2.313091,-0.418034 15.309341,-2.599824 22.871532,-3.839638 26.26983,-4.306906 41.584823,-8.17721 60.822285,-15.3706 12.71864,-4.755831 23.78631,-9.662508 39.7257,-17.611754 9.05076,-4.513773 9.05967,-4.51765 10.60112,-4.612505 2.2367,-0.137639 3.53742,0.329533 10.21572,3.669149 25.5899,12.796735 48.13813,21.73832 67.55265,26.788275 10.72258,2.789074 17.91918,4.233488 35.12637,7.05013 11.79024,1.929942 13.99157,2.313226 19.80108,3.447658 l 4.80445,0.938168 -0.13435,4.947726 c -0.1339,4.931324 -0.44976,13.225519 -1.02017,26.78848 -0.16529,3.930324 -0.38811,9.546524 -0.49511,12.480434 -0.10703,2.9339 -0.32951,7.46309 -0.49441,10.06486 -0.16488,2.60177 -0.4901,8.08208 -0.7227,12.17848 -1.26326,22.24763 -2.60301,32.01231 -7.05665,51.43145 -4.70086,20.49697 -11.97574,41.48404 -20.40981,58.87945 -2.60956,5.38226 -10.24261,18.64117 -15.05597,26.1528 -2.24064,3.49671 -3.76511,5.71084 -8.88104,12.89887 -6.37349,8.9549 -9.25993,12.60694 -13.20522,16.70767 -1.27819,1.32856 -3.41041,3.63394 -4.73823,5.12307 -6.3527,7.12442 -10.81558,11.41295 -17.50209,16.81833 -2.6307,2.12664 -5.21263,4.35384 -7.55809,6.51961 -6.84286,6.31866 -13.60727,11.41754 -21.84075,16.46316 -5.89939,3.61524 -14.05919,7.93254 -15.89445,8.40966 -1.4742,0.38323 -3.07867,0.37984 -4.52749,-0.009 z m 6.10503,-67.71068 c 6.67084,-1.70611 11.21615,-8.2094 10.40432,-14.88621 -0.4203,-3.45676 -1.55805,-5.79754 -4.03078,-8.2929 -1.46304,-1.47642 -2.00356,-1.87054 -3.63122,-2.64779 -2.55599,-1.2205 -3.64441,-1.45924 -6.54216,-1.435 -2.02561,0.0169 -2.67623,0.10537 -4.03019,0.54777 -5.90527,1.92945 -9.76563,7.19366 -9.7557,13.30341 0.004,2.29318 0.39865,3.99782 1.40325,6.05703 1.6943,3.47295 4.59272,5.97211 8.25604,7.1188 1.71925,0.53815 1.95949,0.57152 4.34602,0.60373 1.43767,0.0193 2.48376,-0.0883 3.58042,-0.36884 z m -18.39389,-6.92579 c 0,-0.0414 -0.14231,-0.4717 -0.31624,-0.95616 -1.18467,-3.29971 -1.14679,-7.57937 0.096,-10.84503 0.23173,-0.60893 0.42138,-1.17507 0.42143,-1.25811 6e-5,-0.083 -1.40394,-0.15097 -3.12,-0.15097 -1.71606,0 -3.1235,-0.0226 -3.12763,-0.0503 -0.004,-0.0277 -0.76882,-7.59154 -1.69931,-16.80858 -0.93049,-9.21706 -1.74771,-16.84874 -1.81604,-16.95929 -0.0683,-0.11057 -0.88886,-0.20104 -1.82339,-0.20104 h -1.69914 v 23.65243 23.65243 h 6.54216 c 3.59818,0 6.54216,-0.0339 6.54216,-0.0753 z m 42.70869,-21.11119 c 0.0368,-11.65259 0.0394,-22.27354 0.006,-23.6021 l -0.0613,-2.41557 -1.75034,0.0711 c -0.9627,0.0391 -1.76191,0.0844 -1.77604,0.10065 -0.0141,0.0163 -0.78289,7.61598 -1.70835,16.88823 l -1.68269,16.85865 h -3.19463 c -2.96455,0 -3.18401,0.0254 -3.04703,0.35227 1.04268,2.48827 1.19508,3.33419 1.18768,6.59248 -0.007,3.19783 -0.12932,3.93873 -0.98666,5.9886 -0.13856,0.33129 0.2425,0.35227 6.39972,0.35227 h 6.54705 l 0.067,-21.18654 z m -90.152462,-7.57004 c 4.006732,-2.31092 10.228942,-5.90377 13.827132,-7.9841 3.59818,-2.08032 8.35383,-4.82205 10.5681,-6.09274 2.21427,-1.27069 5.08225,-2.93413 6.3733,-3.69652 l 2.34734,-1.38618 -0.83762,-1.50169 c -0.46069,-0.82595 -0.90298,-1.50368 -0.98287,-1.50605 -0.13898,-0.004 -14.50404,6.42738 -25.69235,11.50303 -2.917912,1.32371 -5.329432,2.37857 -5.358932,2.34413 -0.0295,-0.0345 -0.70751,-1.19494 -1.50669,-2.57886 -0.79917,-1.38392 -1.52133,-2.58816 -1.6048,-2.67611 -0.0835,-0.0879 -0.52265,0.3197 -0.97598,0.90584 -2.00004,2.58602 -5.67974,4.80841 -9.00636,5.43947 -0.80875,0.15341 -1.29331,0.34082 -1.25885,0.48686 0.0308,0.13058 1.46009,2.68788 3.17614,5.6829 2.03634,3.55399 3.2117,5.41357 3.38379,5.35361 0.14503,-0.0505 3.54192,-1.98266 7.54865,-4.29359 z m 135.585892,-1.2286 c 1.78575,-3.09553 3.24683,-5.66672 3.24683,-5.71378 0,-0.0471 -0.47557,-0.14629 -1.05681,-0.22048 -1.55992,-0.19915 -4.29534,-1.30202 -5.93817,-2.39415 -0.79388,-0.52779 -2.11336,-1.68074 -2.9322,-2.56214 l -1.48879,-1.60252 -1.43294,2.46814 c -0.78812,1.35749 -1.50957,2.58307 -1.60321,2.72349 -0.13024,0.19528 -0.5929,0.06 -1.96778,-0.57552 -4.05425,-1.87398 -28.5949,-12.91757 -28.9027,-13.00657 -0.24248,-0.0701 -0.55631,0.28667 -1.15746,1.31603 -0.45364,0.77672 -0.82407,1.487 -0.82319,1.57841 0,0.0914 1.74465,1.17936 3.87498,2.4177 11.2356,6.53111 36.70166,21.19648 36.80971,21.19793 0.0687,0 1.58596,-2.53103 3.37173,-5.62654 z m -68.91824,-7.65741 v -1.91232 l 0.8676,-1.09017 c 1.16365,-1.46218 1.46197,-2.08548 1.58455,-3.31069 0.11765,-1.17606 -0.46749,-3.03905 -1.14793,-3.65486 -0.38646,-0.34973 -0.39848,-0.34603 -0.40165,0.1236 -0.002,0.26627 -0.0859,1.48245 -0.18689,2.70266 -0.19637,2.37259 -0.67214,3.97841 -1.51864,5.12579 -0.46907,0.6358 -0.48011,0.70387 -0.1697,1.04688 0.26339,0.29104 0.28706,0.4655 0.11452,0.84417 -0.20079,0.44068 -0.0805,1.55908 0.27316,2.54051 0.2654,0.73642 0.58498,-0.58322 0.58498,-2.41557 z m -79.216032,-0.52885 c 3.6957,-0.8263 7.3349,-3.72331 9.02735,-7.18629 1.18158,-2.41766 1.34564,-3.19942 1.33801,-6.37567 -0.007,-2.77297 -0.0384,-3.00102 -0.63458,-4.56423 -1.65921,-4.35034 -4.83668,-7.47292 -9.02067,-8.86483 -1.41296,-0.47005 -1.9312,-0.53571 -4.22725,-0.53571 -2.29211,0 -2.816713,0.0662 -4.227243,0.53374 -3.66634,1.21517 -6.46408,3.64595 -8.16053,7.09017 -1.08037,2.19341 -1.41908,3.63426 -1.42754,6.07259 -0.0135,3.89865 1.36706,7.24358 4.1484,10.05094 3.58892,3.6225 8.100733,4.91584 13.184053,3.77929 z m 156.010932,0.10526 c 2.30615,-0.48436 5.00411,-1.98284 6.7956,-3.77432 1.77713,-1.77712 2.88121,-3.64999 3.69902,-6.27462 0.69554,-2.23218 0.65866,-5.6975 -0.0846,-7.94617 -1.2608,-3.81478 -3.69976,-6.60869 -7.28996,-8.35094 -3.94023,-1.9121 -8.12953,-1.87164 -12.15908,0.11742 -3.3113,1.63453 -5.99006,4.77924 -7.22313,8.47949 -0.45457,1.36411 -0.5217,1.90266 -0.5213,4.18257 0,2.29531 0.0663,2.81474 0.53618,4.22724 1.37997,4.14812 4.41996,7.31708 8.41954,8.77674 2.57884,0.94117 5.14655,1.1257 7.82768,0.56259 z m -77.00338,-4.3069 c 0.19546,-0.75293 0.30694,-2.00377 0.29604,-3.3214 -0.01,-1.16249 0.078,-4.01588 0.19467,-6.34086 0.11669,-2.32499 0.21415,-6.07852 0.21659,-8.34118 l 0.004,-4.11393 -0.5876,0.56297 c -0.32318,0.30961 -0.87965,1.11088 -1.2366,1.78059 l -0.64899,1.21763 0.1222,2.63528 c 0.0672,1.4494 0.21056,4.17521 0.31856,6.05734 0.288,5.01902 0.41484,8.03581 0.41866,9.95703 0.003,1.49125 0.0399,1.66706 0.29596,1.40908 0.16091,-0.16213 0.43365,-0.83826 0.60609,-1.50255 z m -1.93945,-7.59897 c -0.0761,-1.0241 -0.33128,-2.45079 -0.56706,-3.17043 -0.59715,-1.82258 -0.72386,-4.16162 -0.32715,-6.03892 0.51923,-2.45713 1.42457,-4.00992 4.04905,-6.94475 1.28708,-1.43928 2.75341,-3.23499 3.25851,-3.9905 2.7111,-4.05511 2.40257,-7.31689 -0.99548,-10.52432 l -1.45826,-1.37645 -0.14933,2.97537 c -0.24264,4.83482 -0.63569,5.97352 -3.6067,10.44874 -1.73409,2.61205 -2.79462,4.69946 -3.14549,6.19116 -0.75255,3.1995 -0.26983,8.11874 1.1061,11.272 0.52723,1.20825 1.63259,3.0201 1.84249,3.0201 0.0724,0 0.0694,-0.8379 -0.007,-1.862 z M 69.183755,216.03054 c 2.42772,-2.42702 5.22364,-3.89252 8.56571,-4.48979 0.748213,-0.1337 1.360383,-0.31171 1.360383,-0.39553 0,-0.0838 -0.39033,-0.81664 -0.86742,-1.62847 -0.477083,-0.81181 -1.158033,-1.98801 -1.513223,-2.61379 l -0.64581,-1.13775 0.95966,-0.69572 c 0.52781,-0.38265 6.666443,-4.79587 13.641393,-9.80717 6.97495,-5.01129 12.757222,-9.18043 12.849492,-9.26474 0.12719,-0.11621 -1.20644,-2.80961 -1.57744,-3.18579 -0.0917,-0.093 -6.612082,3.64786 -37.707355,21.63303 -1.69665,0.98133 -3.07804,1.8748 -3.06976,1.98552 0.0144,0.19312 6.28949,11.17199 6.38542,11.17199 0.0257,0 0.75422,-0.70731 1.61895,-1.57179 z M 253.63837,211.9617 c 2.44263,-4.22396 3.14137,-5.58386 2.95619,-5.75345 -0.13335,-0.12217 -6.58334,-3.87325 -14.33329,-8.33576 -7.74994,-4.46252 -16.21952,-9.34968 -18.82129,-10.86036 -2.60176,-1.51068 -5.3322,-3.08038 -6.06762,-3.48822 l -1.33716,-0.74153 -0.85533,1.43975 c -0.58382,0.98271 -0.79836,1.52671 -0.67584,1.71366 0.1549,0.23636 17.17255,12.56044 24.68633,17.87768 1.40804,0.99642 2.56177,1.89558 2.56387,1.99812 0.002,0.10254 -0.67835,1.36039 -1.51213,2.79519 -0.83375,1.43481 -1.49048,2.63043 -1.4594,2.65693 0.0311,0.0265 0.68582,0.15582 1.45497,0.28739 3.17915,0.54384 6.51042,2.34602 8.66641,4.68843 0.66428,0.72171 1.28154,1.29901 1.3717,1.28287 0.0901,-0.0161 1.60332,-2.51845 3.36259,-5.5607 z m -90.80788,-4.82682 c 0.43134,-0.83035 0.89126,-1.87207 1.02205,-2.31492 0.27987,-0.94765 0.52869,-6.29433 0.79159,-17.00962 0.10457,-4.26247 0.25417,-7.93111 0.33243,-8.15254 0.18299,-0.51774 -3.34348,2.92571 -4.25371,4.15357 -0.67824,0.91491 -0.69149,0.9709 -0.69068,2.91881 4e-4,1.0923 0.0888,3.20888 0.19625,4.70351 0.10749,1.49463 0.28758,5.38974 0.40021,8.65578 0.11263,3.26605 0.26291,6.79437 0.33396,7.84071 l 0.12918,1.90242 0.47724,-0.59399 c 0.26247,-0.3267 0.83014,-1.27338 1.26148,-2.10373 z m -3.12568,-11.32297 -0.13455,-3.06979 -0.66657,-0.74578 c -0.87697,-0.98121 -1.46876,-2.16898 -1.61605,-3.24357 -0.23137,-1.68805 0.93995,-3.31152 7.09515,-9.83394 4.53443,-4.80496 6.80911,-8.28007 7.33085,-11.1996 0.2193,-1.2271 0.2073,-1.59149 -0.0918,-2.78839 -0.49975,-1.99984 -1.0602,-2.98299 -2.43107,-4.26463 -1.1075,-1.03542 -2.78539,-2.04359 -3.0165,-1.81248 -0.0512,0.0512 -0.14992,1.76387 -0.21927,3.80582 -0.0694,2.04195 -0.21109,4.05209 -0.31498,4.46698 -0.27772,1.1091 -2.14243,3.74178 -5.10543,7.20806 -4.13388,4.83605 -5.62903,7.05446 -6.62317,9.82704 -1.73237,4.83145 0.0248,10.0529 4.65144,13.82173 0.60654,0.49408 1.14188,0.89833 1.18965,0.89833 0.0478,0 0.0263,-1.3814 -0.0477,-3.06978 z m 78.73182,-27.37416 c 9.96421,-5.75185 18.18865,-10.52568 18.27654,-10.60851 0.0879,-0.0828 -1.31208,-2.69603 -3.11103,-5.8071 l -3.2708,-5.6565 -1.08759,1.20183 c -2.30551,2.54767 -5.67245,4.38341 -9.17919,5.00472 -0.65464,0.11598 -1.22188,0.24251 -1.26053,0.28117 -0.0387,0.0387 0.56553,1.16558 1.34264,2.50427 0.77711,1.33868 1.46377,2.56646 1.52591,2.7284 0.0795,0.20707 -1.04087,1.11938 -3.77575,3.07469 -6.54705,4.68081 -23.40638,16.82314 -23.54787,16.95951 -0.0733,0.0707 0.2708,0.82414 0.76472,1.67438 l 0.89807,1.54588 2.15406,-1.22241 c 1.18474,-0.67233 10.3066,-5.92847 20.27082,-11.68033 z m -135.59368,11.28361 c 0.67056,-1.15823 0.78596,-1.4931 0.57959,-1.68189 -0.29539,-0.27023 -12.848652,-9.30678 -21.192582,-15.25562 -3.09998,-2.21014 -5.755543,-4.12781 -5.901253,-4.26149 -0.21558,-0.19778 0.0215,-0.73959 1.2727,-2.90871 0.845703,-1.46611 1.505793,-2.69749 1.466883,-2.7364 -0.0389,-0.0389 -0.79279,-0.21765 -1.675293,-0.39719 -3.19671,-0.65038 -6.06717,-2.22299 -8.40305,-4.60368 -0.74991,-0.7643 -1.41045,-1.34267 -1.46786,-1.28526 -0.0574,0.0574 -1.5368,2.58409 -3.28755,5.61483 l -3.18316,5.51045 0.52443,0.33344 c 0.28843,0.1834 6.36708,3.70238 13.5081,7.81996 7.141023,4.11759 15.293563,8.82496 18.116753,10.46083 7.580182,4.39224 8.332152,4.81529 8.579432,4.82659 0.12407,0.006 0.60236,-0.64046 1.06286,-1.43586 z m 58.49097,-7.25994 c 2.77912,-3.29177 3.51764,-4.48147 3.72541,-6.00134 0.16905,-1.23667 0.35307,-6.3542 0.82015,-22.80765 0.19701,-6.94008 0.18798,-7.44624 -0.13929,-7.80787 -0.30768,-0.33998 -0.37109,-0.34894 -0.52487,-0.0742 -0.25879,0.46244 -2.46095,1.51433 -3.17028,1.51433 -0.33806,0 -1.24422,-0.31704 -2.01369,-0.70454 -2.13476,-1.07505 -2.17786,-1.05329 -2.09236,1.05681 0.0393,0.96874 0.16649,4.43357 0.28273,7.69962 0.11626,3.26605 0.29613,7.29703 0.39973,8.95773 0.10359,1.6607 0.23887,4.78584 0.30062,6.94475 0.0617,2.15892 0.15482,4.87643 0.20685,6.03892 0.24194,5.40652 0.34378,7.2467 0.40106,7.2467 0.0341,0 0.84586,-0.92848 1.80394,-2.0633 z m -3.24033,-13.53724 c -0.10108,-2.58957 -0.0765,-3.5227 0.0927,-3.5227 0.12663,0 -0.49117,-0.68923 -1.37289,-1.53162 -0.88172,-0.84239 -1.93058,-2.02495 -2.33081,-2.62791 -1.55509,-2.34285 -2.44738,-6.03076 -2.25026,-9.3005 0.18043,-2.9929 1.34467,-5.23929 3.27773,-6.32437 1.34683,-0.756 2.51355,-0.67431 4.61368,0.32304 0.85786,0.40739 1.72134,0.74072 1.91884,0.74072 0.19751,0 0.96103,-0.28168 1.6967,-0.62594 1.47114,-0.68843 1.50243,-0.78512 0.68898,-2.12933 -0.478,-0.78989 -3.37577,-3.33658 -4.29039,-3.7706 -1.66946,-0.79221 -5.29131,-0.12806 -7.69827,1.41166 -4.09207,2.61766 -6.29329,8.17949 -5.49425,13.88235 0.88756,6.33464 4.21445,11.88676 9.44781,15.76706 0.91303,0.67696 1.70006,1.23085 1.74897,1.23085 0.0489,0 0.0271,-1.58522 -0.0486,-3.52271 z m 1.99251,-26.1104 c -0.43232,-0.20865 -0.80168,-0.88814 -0.59508,-1.09474 0.17529,-0.17528 1.32498,0.52135 1.54793,0.93794 0.17729,0.33126 0.15222,0.39815 -0.14501,0.38688 -0.19764,-0.007 -0.56117,-0.11103 -0.80784,-0.23008 z M 84.041638,150.4701 c 4.83071,-1.22529 8.90825,-5.35073 10.17185,-10.29137 0.48374,-1.89141 0.52098,-4.85103 0.0845,-6.71865 -0.47937,-2.0513 -1.75925,-4.42606 -3.25774,-6.04456 -2.8884,-3.11974 -5.98859,-4.48598 -10.2194,-4.50365 -3.817983,-0.016 -6.642883,1.08371 -9.366923,3.64629 -3.20709,3.017 -4.69271,6.43549 -4.6616,10.72657 0.0269,3.7124 1.37658,6.82593 4.1452,9.56249 3.55239,3.51124 8.333203,4.83299 13.104083,3.62288 z m 156.810552,-0.0265 c 1.65306,-0.42645 3.77777,-1.52513 5.22993,-2.70439 3.91603,-3.18012 5.82011,-8.38862 4.85452,-13.27942 -0.40475,-2.0501 -1.70494,-4.83943 -3.02211,-6.4834 -2.7244,-3.40029 -7.3109,-5.42059 -11.6127,-5.11524 -3.54952,0.25195 -6.52376,1.6297 -9.07933,4.20579 -2.78809,2.81046 -4.15733,6.44775 -3.9223,10.4191 0.12948,2.18744 0.49233,3.54309 1.4744,5.50855 2.13013,4.26306 5.92102,7.05331 10.57594,7.78429 1.38682,0.21777 3.96745,0.0605 5.50165,-0.33528 z M 128.97906,134.47543 c 0.47844,-0.81007 0.8445,-1.49525 0.81347,-1.52262 -0.31388,-0.27689 -40.305952,-23.30722 -40.611102,-23.38681 -0.22297,-0.0582 -1.21158,1.48728 -3.56102,5.56678 -2.97349,5.16308 -3.21513,5.65487 -2.81816,5.73555 2.96425,0.6025 4.44987,1.1687 6.43365,2.45201 1.61778,1.04653 3.09155,2.38212 3.87321,3.51005 0.30769,0.44401 0.62715,0.73593 0.7099,0.64871 0.0828,-0.0872 0.80433,-1.29088 1.6035,-2.6748 0.79918,-1.38392 1.48371,-2.55093 1.52119,-2.59336 0.0645,-0.073 4.235342,1.79479 22.828202,10.22253 4.37318,1.98227 8.03809,3.58403 8.14425,3.55946 0.10615,-0.0246 0.58446,-0.70744 1.06291,-1.5175 z m 73.62666,-4.09387 c 6.75352,-3.0428 13.58651,-6.13126 15.18445,-6.86324 1.59792,-0.73199 2.97636,-1.33088 3.0632,-1.33088 0.13717,0 0.60532,0.75974 2.88596,4.68332 l 0.44062,0.75804 0.88812,-1.11837 c 1.88811,-2.37759 5.31787,-4.53883 8.33613,-5.25297 0.77499,-0.18337 1.56228,-0.38883 1.74953,-0.45657 0.28315,-0.10245 -0.19802,-1.05445 -2.85836,-5.65548 -1.75936,-3.04277 -3.27947,-5.55919 -3.37805,-5.59205 -0.15288,-0.051 -6.16847,3.3952 -34.86674,19.97412 -5.00805,2.89314 -5.83762,3.39794 -5.83762,3.55222 0,0.36618 1.7065,3.00246 1.89351,2.92518 0.12106,-0.05 5.74572,-2.58052 12.49925,-5.62332 z m -36.64752,3.83892 c 0.26492,-0.37823 0.31336,-1.29152 0.31336,-5.90807 v -5.46068 l -0.58049,-0.80135 c -0.96865,-1.33717 -2.86283,-1.95543 -4.57688,-1.49388 -0.93444,0.25162 -2.55248,1.58007 -3.01582,2.47607 -0.46786,0.90474 -0.67554,2.69491 -0.52081,4.48924 l 0.13887,1.61038 1.16088,0.12474 c 0.86109,0.0925 1.44131,0.31094 2.24679,0.84575 1.62174,1.07678 3.6904,3.09549 3.97304,3.8771 0.29157,0.80633 0.43651,0.84684 0.86106,0.2407 z m -31.23371,-2.8237 c 0.0612,-0.47053 0.80411,-7.87575 1.65086,-16.45605 0.84675,-8.58029 1.58066,-15.804354 1.63091,-16.053454 0.09,-0.44626 0.13721,-0.45292 3.20763,-0.45292 1.71395,0 3.11623,-0.0679 3.11617,-0.15097 -5e-5,-0.083 -0.1897,-0.64919 -0.42143,-1.25811 -1.24279,-3.26568 -1.28067,-7.54533 -0.096,-10.845036 0.17393,-0.484452 0.31624,-0.914725 0.31624,-0.956162 0,-0.04144 -2.94398,-0.07534 -6.54216,-0.07534 h -6.54216 v 23.551782 23.55178 h 1.78431 1.78431 z m 52.149,-0.80518 c 0.0711,-0.91339 0.12982,-11.51169 0.13048,-23.55178 l 10e-4,-21.891082 h -6.62143 -6.62143 l 0.52774,1.560054 c 0.48283,1.427316 0.5276,1.834106 0.5262,4.780804 -0.002,3.30316 -0.0766,3.7141 -1.20319,6.59249 -0.12778,0.32647 0.0959,0.3523 3.05409,0.3527 l 3.19197,4.1e-4 1.49246,14.945894 c 0.82087,8.22023 1.5807,15.82907 1.68854,16.90853 l 0.19606,1.96265 h 1.754 1.75403 l 0.12927,-1.6607 z m -24.36002,-25.44174 c 4.47725,-1.11931 8.19144,-4.52435 9.71552,-8.906854 1.04476,-3.00421 1.04266,-6.10604 -0.006,-9.121968 -0.71379,-2.052512 -1.63421,-3.490721 -3.33438,-5.210168 -2.32349,-2.349829 -4.85634,-3.574218 -8.27185,-3.998645 -8.35504,-1.038235 -15.68252,5.3997 -15.68252,13.778671 0,8.08208 6.78024,14.387104 14.89599,13.851944 0.83035,-0.0548 2.03789,-0.2316 2.68342,-0.39298 z M 382.8674,188.71618 V 124.8043 h 37.94453 37.94454 v 13.58756 13.58757 h -21.23686 -21.23686 v 10.87005 10.87005 h 19.82778 19.82777 v 13.08432 13.08433 h -19.82777 -19.82778 v 12.78237 12.78238 h 22.04204 22.04205 v 13.58756 13.58757 H 421.61712 382.8674 Z m 89.57728,0 V 124.8043 h 37.94453 37.94453 v 13.58756 13.58757 h -21.23686 -21.23686 v 10.87005 10.87005 h 19.82778 19.82778 v 13.08432 13.08433 H 525.6878 505.86002 v 26.36994 26.36994 h -16.70767 -16.70767 z m 76.57542,63.55961 c 0.11299,-0.3631 29.41404,-122.56223 30.14294,-125.71014 l 0.40785,-1.76135 h 20.97145 20.97147 l 15.47985,63.45896 c 8.51393,34.90243 15.52016,63.66277 15.56942,63.91188 l 0.0896,0.45292 h -17.73763 c -14.05119,0 -17.73946,-0.0523 -17.74649,-0.25162 -0.005,-0.1384 -0.75883,-5.14315 -1.67547,-11.12168 l -1.66663,-10.87005 H 600.55578 587.2851 l -1.69728,11.12167 -1.69728,11.12168 h -17.49001 c -16.56471,0 -17.48421,-0.0187 -17.38041,-0.35227 z m 57.85803,-64.91837 c -1.64537,-9.77046 -3.696,-21.97663 -4.55693,-27.1248 -0.86093,-5.14818 -1.65235,-9.36033 -1.75873,-9.36033 -0.14615,0 -4.69426,26.44346 -9.21811,53.5954 l -0.109,0.65421 h 9.31718 9.31719 z m 51.36391,1.35105 v -63.91958 l 28.93648,0.0722 c 21.50734,0.0537 29.34992,0.13556 30.54686,0.31885 4.7896,0.73347 8.36871,1.75675 11.7558,3.36102 8.36494,3.962 13.56821,11.31676 15.30032,21.62675 1.12002,6.6666 0.93055,13.91393 -0.52074,19.92049 -2.5358,10.49506 -8.81001,16.74213 -18.75406,18.67293 -1.01295,0.19669 -1.84201,0.42381 -1.84237,0.50473 0,0.16696 0.1153,0.19246 3.01877,0.66362 5.05081,0.81958 9.03597,2.78066 11.81605,5.81463 1.98276,2.16382 3.91451,6.28659 4.88082,10.41669 1.0149,4.33775 1.06327,5.12344 1.22473,19.89598 0.15119,13.83224 0.22396,15.28585 0.93076,18.59046 0.48172,2.25234 2.12493,4.73013 3.84391,5.7962 0.57816,0.35857 0.65421,0.50914 0.65421,1.29516 v 0.88942 h -17.79576 -17.79578 l -0.64337,-1.76135 c -1.74798,-4.78538 -2.41233,-11.45674 -2.41708,-24.27235 -0.005,-13.0903 -0.41972,-17.33155 -2.015,-20.59911 -1.3162,-2.69595 -3.10411,-3.97451 -6.27822,-4.48959 -0.69601,-0.11295 -3.55272,-0.20605 -6.34823,-0.20687 l -5.08276,-0.002 v 25.6654 25.6654 h -16.70767 -16.70767 v -63.91959 z m 44.47604,-10.4419 c 4.42258,-1.13697 7.55457,-4.47082 8.90489,-9.47882 0.37131,-1.37716 0.43522,-2.16426 0.4413,-5.43503 0.006,-3.28967 -0.0554,-4.07805 -0.44007,-5.63632 -1.16801,-4.73187 -3.57679,-7.21829 -8.11295,-8.37444 -1.43255,-0.36512 -2.45846,-0.44528 -6.77111,-0.52903 l -5.08276,-0.0987 v 15.03951 15.03952 l 4.88146,-0.0965 c 3.62862,-0.0718 5.21455,-0.18216 6.17924,-0.43017 z"
     style="fill:#083661;fill-opacity:1"
     inkscape:connector-curvature="0" />
</svg>
